# xmcd
#
# Track frame offsets:
#	150
#	12270
#	31171
#	42544
#	68309
#	81715
#	101180
#	116977
#
# Disc length: 1753 seconds
#
# Revision: 1
# Processed by: cddbd v1.5.2PL0 Copyright (c) Steve Scherf et al.
# Submitted via: audiograbber 1.83.01
#
DISCID=6906d708
DTITLE=Thunder Canyon - Live
DYEAR=1998
DGENRE=Country
TTITLE0=Music To My Ears
TTITLE1=She's Dancing Again
TTITLE2=Only You
TTITLE3=All My Love
TTITLE4=You're The One
TTITLE5=Tall Ladders
TTITLE6=Since I Found You
TTITLE7=It's Alright
EXTD=
EXTT0=
EXTT1=
EXTT2=
EXTT3=
EXTT4=
EXTT5=
EXTT6=
EXTT7=
PLAYORDER=
